<svg width="64" height="64" viewBox="0 0 64 64" fill="none" xmlns="http://www.w3.org/2000/svg">
<path d="M42.7344 53.2671L55.9339 40.0671M29.3333 50.6673H16.5333C13.5464 50.6673 12.0529 50.6673 10.9121 50.086C9.90851 49.5748 9.09261 48.7588 8.58131 47.7553C8 46.6145 8 45.1209 8 42.134V21.8673C8 18.8804 8 17.3869 8.58131 16.246C9.09261 15.2425 9.90851 14.4266 10.9121 13.9153C12.0529 13.334 13.5464 13.334 16.5333 13.334H47.4667C50.4536 13.334 51.9472 13.334 53.088 13.9153C54.0915 14.4266 54.9075 15.2425 55.4187 16.246C56 17.3869 56 18.8804 56 21.8673V28.0007M54.9512 22.0334L41.4664 31.0233C38.0451 33.3041 36.3344 34.4447 34.4853 34.8879C32.8512 35.2793 31.1477 35.2793 29.5139 34.8879C27.6648 34.4447 25.9541 33.3041 22.5327 31.0233L8.39323 21.597M58.6667 46.6673C58.6667 51.822 54.488 56.0007 49.3333 56.0007C44.1787 56.0007 40 51.822 40 46.6673C40 41.5127 44.1787 37.334 49.3333 37.334C54.488 37.334 58.6667 41.5127 58.6667 46.6673Z" stroke="url(#paint0_linear_201_2)" stroke-width="5" stroke-linecap="round" stroke-linejoin="round"/>
<defs>
<linearGradient id="paint0_linear_201_2" x1="33.3333" y1="13.334" x2="33.3333" y2="56.0007" gradientUnits="userSpaceOnUse">
<stop stop-color="#EC478D"/>
<stop offset="0.49375" stop-color="#EE4A40"/>
<stop offset="1" stop-color="#EB9B14"/>
</linearGradient>
</defs>
</svg>
