<?xml version="1.0" standalone="no"?>
<!DOCTYPE svg PUBLIC "-//W3C//DTD SVG 20010904//EN"
 "http://www.w3.org/TR/2001/REC-SVG-20010904/DTD/svg10.dtd">
<svg version="1.0" xmlns="http://www.w3.org/2000/svg"
 width="700.000000pt" height="700.000000pt" viewBox="0 0 700.000000 700.000000"
 preserveAspectRatio="xMidYMid meet">
<metadata>
Created by potrace 1.14, written by Peter Selinger 2001-2017
</metadata>
<g transform="translate(0.000000,700.000000) scale(0.100000,-0.100000)"
fill="#000000" stroke="none">
<path d="M1537 5814 c-1 -1 -45 -4 -97 -7 -215 -14 -313 -44 -458 -140 -123
-82 -247 -225 -302 -351 -31 -68 -60 -191 -68 -286 -9 -113 -9 -2962 1 -3067
4 -45 9 -88 12 -95 2 -7 7 -26 9 -41 21 -126 117 -293 227 -397 55 -52 99 -90
105 -90 2 0 27 -15 56 -33 80 -50 179 -86 283 -102 105 -16 220 -18 1055 -19
l894 -1 55 22 c236 96 223 432 -20 512 -26 8 -287 12 -950 15 -503 2 -932 7
-954 11 -52 10 -87 28 -136 72 -49 44 -74 91 -88 164 -9 50 -17 2169 -8 2169
3 0 39 -24 82 -52 42 -29 85 -58 94 -63 85 -53 1007 -671 1009 -677 2 -4 8 -8
12 -8 5 0 64 -37 131 -82 453 -302 658 -381 999 -382 277 -2 422 31 644 144
148 75 249 140 1055 677 l666 444 6 -138 c7 -154 10 -171 50 -228 55 -81 127
-118 229 -118 103 0 182 49 235 145 l30 53 0 545 c0 587 -4 663 -36 785 -26
101 -46 147 -102 232 -100 153 -267 284 -430 337 -65 22 -214 44 -312 47 -80
2 -3975 5 -3978 3z m4078 -558 c55 -11 93 -32 138 -75 68 -64 85 -110 93 -262
l6 -106 -863 -575 c-475 -317 -902 -599 -948 -627 -170 -107 -303 -163 -416
-176 -198 -23 -335 -1 -496 80 -122 61 -168 91 -1133 734 l-848 565 5 106 c9
158 27 202 108 273 53 46 70 52 209 70 54 8 4108 0 4145 -7z"/>
<path d="M5269 3186 c-2 -2 -28 -7 -58 -10 -73 -9 -129 -22 -235 -58 -461
-153 -808 -579 -864 -1063 -8 -73 -8 -264 0 -325 71 -537 468 -973 993 -1094
113 -26 192 -34 325 -31 490 11 931 300 1139 746 39 83 85 222 95 289 4 19 9
53 13 75 10 52 10 284 1 355 -29 224 -132 463 -276 640 -201 246 -481 408
-802 463 -71 12 -321 22 -331 13z m226 -551 c55 -6 195 -44 195 -54 0 -3 -220
-226 -488 -494 -553 -552 -494 -512 -531 -367 -34 135 -21 333 30 447 11 23
19 45 19 49 0 18 79 132 128 185 122 132 288 218 456 235 33 4 62 7 64 9 3 2
33 0 127 -10z m608 -497 c40 -131 49 -255 27 -381 -46 -253 -234 -472 -485
-566 -123 -45 -300 -52 -435 -17 -47 12 -92 26 -99 30 -9 6 130 151 476 497
268 269 491 489 494 489 3 0 13 -24 22 -52z"/>
</g>
</svg>
